HIERARCHY
ROOT Hips
{
	OFFSET -1.602300 6.242603 43.997101
	CHANNELS 6 Xposition Yposition Zposition Zrotation Xrotation Yrotation
	JOINT Chest
	{
		OFFSET -0.204900 1.598101 7.917301
		CHANNELS 6 Xposition Yposition Zposition Zrotation Xrotation Yrotation
		JOINT Chest2
		{
			OFFSET 0.000000 0.000000 3.404099
			CHANNELS 6 Xposition Yposition Zposition Zrotation Xrotation Yrotation
			JOINT Neck
			{
				OFFSET 0.000000 0.000000 7.928600
				CHANNELS 6 Xposition Yposition Zposition Zrotation Xrotation Yrotation
				JOINT Head
				{
					OFFSET 0.000000 0.000000 2.173897
					CHANNELS 6 Xposition Yposition Zposition Zrotation Xrotation Yrotation
					End Site
					{
						OFFSET 0.000000 0.000001 10.404503
					}
				}
			}
			JOINT LeftCollar
			{
				OFFSET 2.833800 -1.396299 4.843300
				CHANNELS 6 Xposition Yposition Zposition Zrotation Xrotation Yrotation
				JOINT LeftShoulder
				{
					OFFSET 4.363600 0.000000 0.000000
					CHANNELS 6 Xposition Yposition Zposition Zrotation Xrotation Yrotation
					JOINT LeftElbow
					{
						OFFSET 0.000000 -0.000001 -10.306900
						CHANNELS 6 Xposition Yposition Zposition Zrotation Xrotation Yrotation
						JOINT LeftWrist
						{
							OFFSET 0.000000 -0.000001 -12.404900
							CHANNELS 6 Xposition Yposition Zposition Zrotation Xrotation Yrotation
							End Site
							{
								OFFSET 0.000000 0.000000 -2.173901
							}
						}
					}
				}
			}
			JOINT RightCollar
			{
				OFFSET -2.354800 -1.897200 5.063099
				CHANNELS 6 Xposition Yposition Zposition Zrotation Xrotation Yrotation
				JOINT RightShoulder
				{
					OFFSET -4.375800 0.000000 0.000000
					CHANNELS 6 Xposition Yposition Zposition Zrotation Xrotation Yrotation
					JOINT RightElbow
					{
						OFFSET 0.000000 -0.000001 -10.005001
						CHANNELS 6 Xposition Yposition Zposition Zrotation Xrotation Yrotation
						JOINT RightWrist
						{
							OFFSET 0.000000 -0.000001 -13.174900
							CHANNELS 6 Xposition Yposition Zposition Zrotation Xrotation Yrotation
							End Site
							{
								OFFSET 0.000000 0.000000 -2.173901
							}
						}
					}
				}
			}
		}
	}
	JOINT LeftHip
	{
		OFFSET 2.240600 0.386800 -2.614101
		CHANNELS 6 Xposition Yposition Zposition Zrotation Xrotation Yrotation
		JOINT LeftKnee
		{
			OFFSET 0.000000 -0.000001 -18.592899
			CHANNELS 6 Xposition Yposition Zposition Zrotation Xrotation Yrotation
			JOINT LeftAnkle
			{
				OFFSET 0.000000 -0.000001 -18.765800
				CHANNELS 6 Xposition Yposition Zposition Zrotation Xrotation Yrotation
				End Site
				{
					OFFSET 0.000000 -8.655000 0.000000
				}
			}
		}
	}
	JOINT RightHip
	{
		OFFSET -2.014900 -0.220900 -2.615898
		CHANNELS 6 Xposition Yposition Zposition Zrotation Xrotation Yrotation
		JOINT RightKnee
		{
			OFFSET 0.000000 -0.000001 -18.633900
			CHANNELS 6 Xposition Yposition Zposition Zrotation Xrotation Yrotation
			JOINT RightAnkle
			{
				OFFSET 0.000000 -0.000001 -18.285101
				CHANNELS 6 Xposition Yposition Zposition Zrotation Xrotation Yrotation
				End Site
				{
					OFFSET 0.000000 -7.524500 0.000000
				}
			}
		}
	}
}
MOTION
Frames: 6
Frame Time: 0.041667
-1.865895 23.147703 7.063805 -36.453512 -19.568504 14.409476 -0.204896 1.598101 7.917305 40.905982 16.282693 -4.687155 0.000000 -0.000002 3.404102 -24.379225 -10.761776 -3.632470 -0.000002 -0.000003 7.928599 30.133729 14.969688 -38.826152 -0.000000 -0.000001 2.173901 0.724220 5.323062 0.696677 2.833800 -1.396300 4.843305 -2.408532 13.114207 3.718393 4.363590 0.000002 -0.000001 -28.010823 18.226367 -77.041146 0.000005 0.000011 -10.306909 617.961966 -129.558102 641.537484 0.000000 -0.000002 -12.404895 55.235207 365.637839 -367.407678 -2.354804 -1.897200 5.063102 25.843375 12.125502 -26.396820 -4.375796 0.000007 0.000003 58.392148 -9.236800 60.679769 -0.000003 0.000012 -10.005005 -614.639107 -168.260344 -619.875130 -0.000007 0.000006 -13.174907 -44.660063 -364.265272 262.742952 2.240602 0.386803 -2.614108 78.791034 -59.829411 78.619644 -0.000001 0.000001 -18.592899 -9.322532 36.847576 -1.660178 0.000002 0.000001 -18.765797 -63.666031 71.359467 35.623968 -2.014896 -0.220897 -2.615901 -96.628155 -14.841041 -68.034087 -0.000001 0.000005 -18.633884 105.111810 -5.351214 -165.012166 -0.000003 -0.000005 -18.285084 -55.181395 36.270722 -171.521609
-1.866295 23.146702 7.064716 -36.472346 -19.563094 14.382042 -0.204899 1.598099 7.917305 40.921791 16.288862 -4.701521 0.000000 -0.000002 3.404099 -24.358966 -10.806434 -3.634977 -0.000004 -0.000000 7.928599 30.133586 15.004472 -38.797718 -0.000001 -0.000004 2.173902 0.694632 5.313744 0.634609 2.833800 -1.396300 4.843307 -2.678986 13.447060 4.081419 4.363587 -0.000000 0.000002 -27.662365 18.116377 -77.443273 0.000006 0.000008 -10.306906 618.044038 -129.587690 641.587918 -0.000002 -0.000003 -12.404891 55.301050 365.681334 -367.425491 -2.354803 -1.897201 5.063104 26.236157 12.444121 -26.840118 -4.375797 0.000005 0.000006 58.273501 -9.018679 61.266285 -0.000003 0.000008 -10.005006 -614.554358 -168.187753 -619.886167 -0.000002 0.000008 -13.174900 -44.649292 -364.308739 262.875266 2.240600 0.386806 -2.614103 78.737424 -59.817882 78.551164 -0.000002 0.000003 -18.592901 -9.382523 36.757520 -1.606936 0.000003 0.000001 -18.765797 -64.021849 71.607451 35.977577 -2.014897 -0.220899 -2.615896 -96.616318 -14.841936 -68.031512 -0.000001 0.000002 -18.633886 105.098621 -5.366354 -165.015280 -0.000005 -0.000005 -18.285084 -55.210304 36.264271 -171.494562
-1.866796 23.145906 7.065411 -36.486833 -19.559082 14.355478 -0.204897 1.598099 7.917304 40.933331 16.300834 -4.709977 0.000001 -0.000002 3.404105 -24.349274 -10.850384 -3.640066 -0.000001 -0.000001 7.928603 30.166756 15.008622 -38.798927 -0.000000 -0.000000 2.173904 0.654672 5.312111 0.558664 2.833801 -1.396300 4.843304 -2.948592 13.785575 4.415743 4.363595 0.000006 -0.000002 -27.314615 17.987453 -77.825470 0.000003 0.000013 -10.306908 618.114635 -129.619847 641.621578 -0.000000 -0.000003 -12.404895 55.344056 365.725157 -367.425245 -2.354803 -1.897205 5.063101 26.666679 12.784330 -27.276007 -4.375795 0.000012 0.000000 58.157756 -8.799797 61.873789 -0.000003 0.000013 -10.005002 -614.475619 -168.083661 -619.901521 -0.000006 0.000006 -13.174903 -44.763506 -364.356523 262.997254 2.240601 0.386806 -2.614104 78.673336 -59.805874 78.472515 0.000001 0.000001 -18.592901 -9.479152 36.674568 -1.533748 -0.000002 0.000002 -18.765797 -64.286239 71.829302 36.267741 -2.014898 -0.220894 -2.615900 -96.606496 -14.844463 -68.026485 0.000000 0.000005 -18.633888 105.083492 -5.381007 -165.017603 -0.000007 -0.000005 -18.285084 -55.239845 36.258298 -171.467241
-1.867596 23.145704 7.065807 -36.495080 -19.554507 14.335179 -0.204898 1.598096 7.917306 40.939635 16.314812 -4.718497 0.000000 -0.000001 3.404102 -24.343768 -10.886002 -3.646300 -0.000002 -0.000002 7.928603 30.214267 14.985411 -38.809422 -0.000001 -0.000002 2.173910 0.622309 5.314337 0.471214 2.833799 -1.396301 4.843310 -3.202092 14.105272 4.693774 4.363588 0.000004 -0.000002 -26.996830 17.834286 -78.152753 0.000008 0.000008 -10.306904 618.162501 -129.651115 641.632069 0.000000 -0.000002 -12.404896 55.361268 365.759444 -367.412623 -2.354804 -1.897200 5.063106 27.082124 13.108403 -27.670356 -4.375794 0.000003 -0.000001 58.069715 -8.562213 62.454580 -0.000002 0.000007 -10.005007 -614.430594 -167.966537 -619.907095 -0.000006 0.000006 -13.174905 -44.917455 -364.416711 263.073779 2.240601 0.386803 -2.614100 78.607295 -59.798989 78.393530 0.000001 0.000001 -18.592897 -9.587543 36.602407 -1.453187 -0.000001 0.000001 -18.765797 -64.544024 72.018157 36.579525 -2.014898 -0.220896 -2.615896 -96.600895 -14.844276 -68.021874 -0.000000 0.000007 -18.633888 105.068254 -5.393296 -165.018190 -0.000006 -0.000005 -18.285084 -55.267647 36.253333 -171.441682
-1.868595 23.146006 7.066105 -36.498345 -19.547655 14.322116 -0.204897 1.598096 7.917308 40.941568 16.329586 -4.726954 -0.000000 0.000001 3.404105 -24.340520 -10.902968 -3.652855 -0.000004 0.000001 7.928596 30.269493 14.932013 -38.826125 -0.000001 -0.000001 2.173906 0.602136 5.312739 0.381585 2.833802 -1.396301 4.843303 -3.397784 14.350564 4.863733 4.363587 0.000002 -0.000001 -26.761858 17.671134 -78.366414 0.000005 0.000012 -10.306904 618.175068 -129.684337 641.619993 -0.000001 -0.000004 -12.404895 55.350583 365.773842 -367.390903 -2.354802 -1.897202 5.063097 27.414042 13.366273 -27.944068 -4.375797 0.000007 0.000004 58.022327 -8.356799 62.908385 -0.000001 0.000014 -10.005007 -614.374532 -167.834960 -619.764317 -0.000005 0.000007 -13.174906 -45.130816 -364.388407 263.058807 2.240603 0.386807 -2.614103 78.553794 -59.798818 78.326458 0.000002 0.000002 -18.592897 -9.670677 36.546030 -1.382459 0.000001 0.000001 -18.765799 -64.775240 72.174759 36.874129 -2.014894 -0.220895 -2.615896 -96.602077 -14.838813 -68.020447 -0.000000 0.000005 -18.633886 105.056273 -5.403021 -165.017261 -0.000010 -0.000006 -18.285084 -55.291624 36.251140 -171.420454
-1.869797 23.146706 7.066406 -36.500312 -19.537758 14.315655 -0.204898 1.598098 7.917307 40.941991 16.342305 -4.734118 0.000001 0.000001 3.404099 -24.339213 -10.900405 -3.659479 -0.000001 -0.000006 7.928600 30.323810 14.857664 -38.844604 -0.000000 -0.000002 2.173898 0.596213 5.301971 0.297808 2.833803 -1.396305 4.843307 -3.524842 14.513718 4.937027 4.363588 0.000005 -0.000000 -26.615545 17.510150 -78.481414 0.000004 0.000006 -10.306907 618.153430 -129.718311 641.592672 -0.000002 -0.000003 -12.404893 55.323105 365.761848 -367.372680 -2.354798 -1.897205 5.063103 27.651577 13.549255 -28.111484 -4.375795 0.000010 0.000002 58.020428 -8.164380 63.235462 -0.000003 0.000010 -10.005000 -614.349670 -167.727480 -619.926875 -0.000002 0.000003 -13.174906 -45.337399 -364.546840 263.291990 2.240599 0.386808 -2.614102 78.522751 -59.806482 78.278858 0.000002 0.000002 -18.592899 -9.696132 36.504284 -1.338974 0.000001 0.000001 -18.765795 -64.995848 72.294670 37.162602 -2.014899 -0.220894 -2.615897 -96.611421 -14.822515 -68.024716 0.000000 0.000003 -18.633888 105.053978 -5.410533 -165.014911 -0.000005 -0.000007 -18.285084 -55.310903 36.252639 -171.404813
